inDegrees=no
num_controls=7
num_derivatives=13
num_iterations=48
num_multipliers=7
num_parameters=0
num_slacks=7
num_states=26
objective=0.430986
objective_accelerations=0.053726
objective_balance=0.006948
objective_effort=0.033220
objective_height=0.335986
objective_ligament=0.001106
solver_duration=698.641393
status=Solve_Succeeded
success=true
DataType=double
version=3
OpenSimVersion=4.5
endheader
time	/jointset/ground_pelvis/pelvis_tilt/value	/jointset/ground_pelvis/pelvis_tx/value	/jointset/ground_pelvis/pelvis_ty/value	/jointset/hip_l/hip_flexion_l/value	/jointset/hip_l/hip_adduction_l/value	/jointset/hip_l/hip_rotation_l/value	/jointset/back/lumbar_extension/value	/jointset/patellofemoral_l/patellar_flexion_l/value	/jointset/knee_l/knee_flexion_l/value	/jointset/knee_l/knee_adduction_l/value	/jointset/knee_l/knee_rotation_l/value	/jointset/ankle_l/ankle_angle_l/value	/jointset/subtalar_l/subtalar_angle_l/value	/jointset/ground_pelvis/pelvis_tilt/speed	/jointset/ground_pelvis/pelvis_tx/speed	/jointset/ground_pelvis/pelvis_ty/speed	/jointset/hip_l/hip_flexion_l/speed	/jointset/hip_l/hip_adduction_l/speed	/jointset/hip_l/hip_rotation_l/speed	/jointset/back/lumbar_extension/speed	/jointset/patellofemoral_l/patellar_flexion_l/speed	/jointset/knee_l/knee_flexion_l/speed	/jointset/knee_l/knee_adduction_l/speed	/jointset/knee_l/knee_rotation_l/speed	/jointset/ankle_l/ankle_angle_l/speed	/jointset/subtalar_l/subtalar_angle_l/speed	/forceset/tau_hip_flexion_l	/forceset/tau_hip_adduction_l	/forceset/tau_hip_rotation_l	/forceset/tau_knee_flexion_l	/forceset/tau_ankle_angle_l	/forceset/tau_subtalar_angle_l	/forceset/tau_lumbar_extension	lambda_cid13_p0	lambda_cid13_p1	lambda_cid13_p2	lambda_cid13_p3	lambda_cid13_p4	lambda_cid13_p5	lambda_cid14_p0	/jointset/ground_pelvis/pelvis_tilt/accel	/jointset/ground_pelvis/pelvis_tx/accel	/jointset/ground_pelvis/pelvis_ty/accel	/jointset/hip_l/hip_flexion_l/accel	/jointset/hip_l/hip_adduction_l/accel	/jointset/hip_l/hip_rotation_l/accel	/jointset/back/lumbar_extension/accel	/jointset/patellofemoral_l/patellar_flexion_l/accel	/jointset/knee_l/knee_flexion_l/accel	/jointset/knee_l/knee_adduction_l/accel	/jointset/knee_l/knee_rotation_l/accel	/jointset/ankle_l/ankle_angle_l/accel	/jointset/subtalar_l/subtalar_angle_l/accel	gamma_cid13_p0	gamma_cid13_p1	gamma_cid13_p2	gamma_cid13_p3	gamma_cid13_p4	gamma_cid13_p5	gamma_cid14_p0
0	-0.1577827569386926	0.05768791454752503	0.897919621106999	0.3774924667018715	-0.2602760490610639	-0.2534164384296264	-0.01265067647494873	0.03223648243721881	0.03223648243721463	-0.1745327516036586	0.1558697181765717	-0.04231377076293093	-0.01062831160296049	0	0	0	0	0	0	0	0	0	0	0	0	0	0.1153882323634761	-0.01300886496860245	-0.04121342734871464	-0.2545535182990061	0.2566582302502304	-0.08198059583709399	-0.06848495070021486	39.2043651385207	21.85192217629131	3.98136857078075	4.1647814133303	-585.1186172581579	-27.12135879301467	-38.50185376887256	-2.631439091243093	-1.990332643906041	-1.03518200263997	11.73267087711527	-1.375885067983095	3.73581588638285	-5.854969914555941	11.18447588393115	11.18447588393096	0.2106963230602516	0.156408251380441	2.326313457351554	-0.8707704499791439	7.796000816226702e-09	3.295600213900958e-07	5.998009915488549e-09	-5.173979467015092e-08	2.676906304268019e-07	1.720381173484574e-07	9.864241830660818e-09
0.01	-0.157911781191392	0.05759417636459232	0.897869277326616	0.3780617841976396	-0.2603445976793953	-0.2532308032797133	-0.01294018400483381	0.03278301693396599	0.03278301693392414	-0.1745247640514004	0.1558747108633507	-0.04219559692016014	-0.01067113680518743	-0.02601576123693976	-0.01820317551700365	-0.01001581617327295	0.1131076515149232	-0.01366410369856639	0.03688583409807313	-0.05710388485430085	0.1088005214662044	0.1088005214662046	0.001515209308176422	0.001084944490054029	0.02409252657729978	-0.00841197107306299	0.126098406152357	-0.02557244725969244	-0.04525952350949197	-0.2831152062560185	0.3042334201986571	-0.0835968693740438	-0.07364635205036781	54.48915200195394	20.31787287221175	3.723054133347843	-10.70860630236674	-588.2581709169959	-32.03600330872702	-38.51785380840091	-2.618297808805385	-1.653651194330597	-0.9767869008554501	10.98642395928187	-1.354871523441088	3.628798505998947	-5.51845460182973	10.65188162366466	10.65188162366488	0.1096362178818188	0.09751429372140653	2.519390722685184	-0.8035028264498979	-6.462328562245562e-08	1.905220402188177e-07	1.468216288484337e-07	1.836016218490145e-08	-4.231152554727385e-08	2.478450645986769e-08	-2.107621977674445e-08
0.02	-0.158307293690253	0.05733473818874247	0.8977203742892634	0.3797395005426429	-0.260548427035255	-0.2526835435219094	-0.01377680174946223	0.03440236491445268	0.03440236491445733	-0.1745040838117606	0.1558931483442962	-0.04182276411866102	-0.0107935001962397	-0.05329764922925113	-0.0331399985834277	-0.01971185139393914	0.2216797698538952	-0.02705614750302333	0.07232492157531317	-0.1094220429470697	0.2145626967603854	0.2145626967603871	0.002538537943775272	0.00268895881623932	0.05093179174523459	-0.01590763776532568	0.1368085799409956	-0.03813602955081256	-0.04930561966983872	-0.3116768942132243	0.3518086101470347	-0.08521314291104035	-0.07880775340068437	69.86788922405486	18.76999951259658	3.463949590795406	-25.80353483062669	-590.040045535668	-36.81437361705921	-38.56480322869356	-2.884664442316928	-1.337062153790549	-0.9712258121185495	10.82556424192525	-1.32147308916029	3.446466562216195	-4.897824562249367	10.57680664952653	10.57680664952659	0.1123201885465618	0.2602222186066275	2.875661175478288	-0.6875095738182512	-1.370425720611379e-07	5.148405904753955e-08	2.876452477813789e-07	8.846011903995382e-08	-3.523136815213496e-07	-1.224691044287221e-07	-5.201668138414971e-08
0.03	-0.1589771036895189	0.0569363334014683	0.8974756367435202	0.3824838191789335	-0.2608837968486252	-0.2517877970247223	-0.01511866521759508	0.03706568116157402	0.03706568116157154	-0.1744734975058343	0.1559290952401443	-0.04117427877939221	-0.01098683116130696	-0.08036439747346673	-0.04658749953533702	-0.0292241244978469	0.3267393965690697	-0.03987100529233401	0.1067214534930472	-0.1587764224120027	0.3177237927462389	0.3177237927462362	0.003707308780836348	0.004460324511630134	0.07856984022848255	-0.02266639914308177	0.1267905931335682	-0.03186124269682897	-0.04698411254615014	-0.2965544092135161	0.3292339417221973	-0.08268842101477283	-0.07167607273445538	62.69644909602388	18.76558458489545	3.651516084242009	-20.39806438420328	-589.5568387944031	-35.34865772685261	-38.6409176742025	-2.572695270411592	-1.355557190868961	-0.9395697862963499	10.27946205174375	-1.239504088128811	3.4207626161442	-4.928110398031107	10.12925761359557	10.12925761359502	0.1384850330420095	0.1295350317112427	2.678550686816005	-0.6562754519384563	-1.454889345564059e-07	1.87363495296196e-07	2.303562357401385e-07	1.065691268843181e-07	-4.192286398639993e-07	-2.341957393533595e-08	-3.680347053946353e-08
